<svg width="409" height="570" viewBox="0 0 409 570" fill="none" xmlns="http://www.w3.org/2000/svg">
<g clip-path="url(#clip0_33719_451)">
<path d="M28.02 26.32H11.82V61H3.6V19H28.02V26.32ZM23.752 31H29.452L30.352 34.6H30.592C31.632 33.08 32.852 31.96 34.252 31.24C35.692 30.52 37.432 30.16 39.472 30.16C43.232 30.16 46.052 31.36 47.932 33.76C49.812 36.12 50.752 39.94 50.752 45.22C50.752 47.78 50.452 50.1 49.852 52.18C49.252 54.22 48.352 55.96 47.152 57.4C45.992 58.84 44.552 59.94 42.832 60.7C41.152 61.46 39.212 61.84 37.012 61.84C35.772 61.84 34.752 61.74 33.952 61.54C33.152 61.38 32.352 61.1 31.552 60.7V73H23.752V31ZM37.132 36.76C35.612 36.76 34.412 37.14 33.532 37.9C32.692 38.66 32.032 39.8 31.552 41.32V53.8C32.112 54.24 32.712 54.6 33.352 54.88C34.032 55.12 34.912 55.24 35.992 55.24C38.232 55.24 39.912 54.46 41.032 52.9C42.152 51.3 42.712 48.68 42.712 45.04C42.712 42.4 42.272 40.36 41.392 38.92C40.512 37.48 39.092 36.76 37.132 36.76ZM55.9744 32.74C57.5744 32.02 59.4744 31.46 61.6744 31.06C63.8744 30.62 66.1744 30.4 68.5744 30.4C70.6544 30.4 72.3944 30.66 73.7944 31.18C75.1944 31.66 76.2944 32.36 77.0944 33.28C77.9344 34.2 78.5144 35.3 78.8344 36.58C79.1944 37.86 79.3744 39.3 79.3744 40.9C79.3744 42.66 79.3144 44.44 79.1944 46.24C79.0744 48 78.9944 49.74 78.9544 51.46C78.9544 53.18 79.0144 54.86 79.1344 56.5C79.2544 58.1 79.5544 59.62 80.0344 61.06H73.6744L72.4144 56.92H72.1144C71.3144 58.16 70.1944 59.24 68.7544 60.16C67.3544 61.04 65.5344 61.48 63.2944 61.48C61.8944 61.48 60.6344 61.28 59.5144 60.88C58.3944 60.44 57.4344 59.84 56.6344 59.08C55.8344 58.28 55.2144 57.36 54.7744 56.32C54.3344 55.24 54.1144 54.04 54.1144 52.72C54.1144 50.88 54.5144 49.34 55.3144 48.1C56.1544 46.82 57.3344 45.8 58.8544 45.04C60.4144 44.24 62.2544 43.7 64.3744 43.42C66.5344 43.1 68.9344 43 71.5744 43.12C71.8544 40.88 71.6944 39.28 71.0944 38.32C70.4944 37.32 69.1544 36.82 67.0744 36.82C65.5144 36.82 63.8544 36.98 62.0944 37.3C60.3744 37.62 58.9544 38.04 57.8344 38.56L55.9744 32.74ZM65.8744 55.06C67.4344 55.06 68.6744 54.72 69.5944 54.04C70.5144 53.32 71.1944 52.56 71.6344 51.76V47.86C70.3944 47.74 69.1944 47.72 68.0344 47.8C66.9144 47.88 65.9144 48.06 65.0344 48.34C64.1544 48.62 63.4544 49.02 62.9344 49.54C62.4144 50.06 62.1544 50.72 62.1544 51.52C62.1544 52.64 62.4744 53.52 63.1144 54.16C63.7944 54.76 64.7144 55.06 65.8744 55.06ZM99.66 61.36C98.98 61.6 98.26 61.74 97.5 61.78C96.78 61.82 96.12 61.84 95.52 61.84C91.88 61.84 89.08 60.54 87.12 57.94C85.16 55.34 84.18 51.36 84.18 46C84.18 40.88 85.26 37 87.42 34.36C89.58 31.72 92.7 30.4 96.78 30.4C97.9 30.4 98.86 30.48 99.66 30.64V19H107.34V30.7C108.06 30.58 108.7 30.5 109.26 30.46C109.82 30.42 110.36 30.4 110.88 30.4C114.84 30.4 117.82 31.58 119.82 33.94C121.82 36.26 122.82 40.08 122.82 45.4C122.82 47.92 122.54 50.2 121.98 52.24C121.46 54.24 120.68 55.96 119.64 57.4C118.6 58.84 117.32 59.94 115.8 60.7C114.32 61.46 112.6 61.84 110.64 61.84C110.28 61.84 109.74 61.8 109.02 61.72C108.34 61.68 107.78 61.58 107.34 61.42V73H99.66V61.36ZM109.14 36.58C108.74 36.58 108.38 36.62 108.06 36.7C107.78 36.74 107.42 36.8 106.98 36.88V55.48C107.3 55.56 107.66 55.62 108.06 55.66C108.5 55.66 108.96 55.66 109.44 55.66C111.36 55.66 112.76 54.88 113.64 53.32C114.56 51.72 115.02 49.08 115.02 45.4C115.02 42.28 114.58 40.04 113.7 38.68C112.82 37.28 111.3 36.58 109.14 36.58ZM97.56 55.66C98 55.66 98.4 55.64 98.76 55.6C99.16 55.52 99.58 55.44 100.02 55.36V36.82C99.26 36.66 98.48 36.58 97.68 36.58C95.84 36.58 94.42 37.3 93.42 38.74C92.46 40.14 91.98 42.56 91.98 46C91.98 49.12 92.42 51.52 93.3 53.2C94.22 54.84 95.64 55.66 97.56 55.66ZM145.992 47.32L146.292 43.06H146.112L143.532 47.44L132.852 61H127.932V31H135.732V45.28L135.372 49.36H135.612L138.072 45.1L148.872 31H153.792V61H145.992V47.32ZM170.527 48.58H168.427V61H160.627V31H168.427V43.78L170.287 42.94L177.307 31H185.647L178.387 42.4L175.327 44.68L178.687 47.02L186.787 61H177.847L170.527 48.58ZM189.803 32.74C191.403 32.02 193.303 31.46 195.503 31.06C197.703 30.62 200.003 30.4 202.402 30.4C204.483 30.4 206.223 30.66 207.623 31.18C209.023 31.66 210.123 32.36 210.923 33.28C211.763 34.2 212.343 35.3 212.663 36.58C213.023 37.86 213.203 39.3 213.203 40.9C213.203 42.66 213.143 44.44 213.023 46.24C212.903 48 212.823 49.74 212.783 51.46C212.783 53.18 212.843 54.86 212.963 56.5C213.083 58.1 213.383 59.62 213.863 61.06H207.503L206.243 56.92H205.943C205.143 58.16 204.023 59.24 202.583 60.16C201.183 61.04 199.363 61.48 197.123 61.48C195.723 61.48 194.463 61.28 193.343 60.88C192.223 60.44 191.263 59.84 190.463 59.08C189.663 58.28 189.043 57.36 188.603 56.32C188.163 55.24 187.943 54.04 187.943 52.72C187.943 50.88 188.343 49.34 189.143 48.1C189.983 46.82 191.163 45.8 192.683 45.04C194.243 44.24 196.083 43.7 198.203 43.42C200.363 43.1 202.763 43 205.403 43.12C205.683 40.88 205.523 39.28 204.923 38.32C204.323 37.32 202.983 36.82 200.903 36.82C199.343 36.82 197.683 36.98 195.923 37.3C194.203 37.62 192.783 38.04 191.663 38.56L189.803 32.74ZM199.703 55.06C201.263 55.06 202.503 54.72 203.423 54.04C204.343 53.32 205.023 52.56 205.463 51.76V47.86C204.223 47.74 203.023 47.72 201.863 47.8C200.743 47.88 199.743 48.06 198.863 48.34C197.983 48.62 197.283 49.02 196.763 49.54C196.243 50.06 195.983 50.72 195.983 51.52C195.983 52.64 196.303 53.52 196.943 54.16C197.623 54.76 198.543 55.06 199.703 55.06Z" fill="black"/>
<path d="M115 271H113V273H115V271Z" fill="black"/>
<path d="M129 271H117V273H129V271Z" fill="black"/>
<path d="M115 275H113V277H115V275Z" fill="black"/>
<path d="M129 275H117V277H129V275Z" fill="black"/>
<path d="M115 279H113V281H115V279Z" fill="black"/>
<path d="M129 279H117V281H129V279Z" fill="black"/>
<path d="M115 283H113V285H115V283Z" fill="black"/>
<path d="M129 283H117V285H129V283Z" fill="black"/>
<path d="M155 283H139V285H155V283Z" fill="black"/>
<path d="M153 273V279H141V273H153ZM155 271H139V281H155V271Z" fill="black"/>
<path d="M169 271H165V277H169V271Z" fill="black"/>
<path d="M181 271H177V277H181V271Z" fill="black"/>
<path d="M175 271H171V277H175V271Z" fill="black"/>
<path d="M169 279H165V285H169V279Z" fill="black"/>
<path d="M181 279H177V285H181V279Z" fill="black"/>
<path d="M175 279H171V285H175V279Z" fill="black"/>
<rect x="91.5" y="248.5" width="111" height="59" rx="4.5" stroke="#7B61FF" stroke-dasharray="10 5"/>
<path fill-rule="evenodd" clip-rule="evenodd" d="M248.95 271.948C249.116 271.402 248.95 271 248.155 271H245.53C244.862 271 244.554 271.347 244.387 271.73C244.387 271.73 243.052 274.926 241.161 277.002C240.549 277.604 240.271 277.795 239.937 277.795C239.77 277.795 239.519 277.604 239.519 277.057V271.948C239.519 271.292 239.335 271 238.779 271H234.651C234.234 271 233.983 271.304 233.983 271.593C233.983 272.214 234.929 272.358 235.026 274.106V277.904C235.026 278.737 234.873 278.888 234.539 278.888C233.649 278.888 231.484 275.677 230.199 272.003C229.95 271.288 229.698 271 229.027 271H226.4C225.65 271 225.5 271.347 225.5 271.73C225.5 272.412 226.39 275.8 229.645 280.281C231.815 283.341 234.87 285 237.653 285C239.322 285 239.528 284.632 239.528 283.997V281.684C239.528 280.947 239.686 280.8 240.215 280.8C240.605 280.8 241.272 280.992 242.83 282.467C244.61 284.216 244.903 285 245.905 285H248.53C249.28 285 249.656 284.632 249.44 283.904C249.202 283.18 248.352 282.129 247.225 280.882C246.613 280.172 245.695 279.407 245.416 279.024C245.027 278.533 245.138 278.314 245.416 277.877C245.416 277.877 248.616 273.451 248.949 271.948H248.95Z" fill="#83B3D3"/>
<path d="M276.285 270.099L260.341 276.248C259.253 276.685 259.259 277.292 260.141 277.563L264.235 278.84L273.706 272.864C274.154 272.591 274.563 272.738 274.227 273.036L266.553 279.962H266.551L266.553 279.963L266.271 284.182C266.684 284.182 266.867 283.993 267.099 283.769L269.087 281.835L273.223 284.89C273.986 285.31 274.533 285.094 274.723 284.184L277.438 271.389C277.716 270.275 277.013 269.77 276.285 270.099Z" fill="#83B3D3"/>
<path d="M306.107 269.5H290.674C288.814 269.5 287.5 271.094 287.5 272.9V282.994C287.5 284.906 288.814 286.5 290.674 286.5H306.326C307.968 286.5 309.5 284.906 309.5 283.1V272.9C309.281 271.094 307.968 269.5 306.107 269.5ZM295.162 282.038V273.962L302.495 278L295.162 282.038Z" fill="#83B3D3"/>
<rect x="211.5" y="248.5" width="112" height="59" rx="4.5" stroke="#7B61FF" stroke-dasharray="10 5"/>
<path d="M58 273L51.5 280.4L48.1 276.5L47 277.7L51.5 282.9L59.2 274.3L58 273Z" fill="black"/>
<path d="M25 278C25 275.239 27.2386 273 30 273C32.7614 273 35 275.239 35 278C35 280.761 32.7614 283 30 283C27.2386 283 25 280.761 25 278Z" fill="black"/>
<rect x="0.5" y="248.5" width="82" height="59" rx="4.5" stroke="#7B61FF" stroke-dasharray="10 5"/>
<path fill-rule="evenodd" clip-rule="evenodd" d="M62.0001 146.379L24.4395 183.939L26.5608 186.061L34.0001 178.621V216H30.0001V219H95.0001V216H90.0001V178.621L97.4395 186.061L99.5608 183.939L90.0001 174.379V147H76.0001V160.379L62.0001 146.379ZM79.0001 163.379L87.0001 171.379V150H79.0001V163.379ZM87.0001 175.621L62.0001 150.621L37.0001 175.621V216H87.0001V175.621ZM54 188V212H70V188H54ZM57 209V191H67V209H57ZM41 188H44V192H41V188ZM50 188H47V192H50V188ZM41 194H44V198H41V194ZM50 194H47V198H50V194ZM74 188H77V192H74V188ZM83 188H80V192H83V188ZM74 194H77V198H74V194ZM83 194H80V198H83V194ZM57 174C57 171.239 59.2386 169 62 169C64.7614 169 67 171.239 67 174C67 176.761 64.7614 179 62 179C59.2386 179 57 176.761 57 174ZM62 166C57.5817 166 54 169.582 54 174C54 178.418 57.5817 182 62 182C66.4183 182 70 178.418 70 174C70 169.582 66.4183 166 62 166Z" fill="black"/>
<path d="M186.9 195.7H176.3H131.6H121.1C118.8 195.7 117 197.6 117 200V203.5C117 205.9 118.9 207.8 121.1 207.8H122V208.9C122 214.4 126.3 219 131.6 219H176.2C181.5 219 185.8 214.5 185.8 208.9V207.8H186.7C189 207.8 190.8 205.9 190.8 203.5V200C191 197.7 189.1 195.7 186.9 195.7ZM183 208.9C183 212.8 180 215.9 176.3 215.9H131.6C127.9 215.9 124.9 212.7 124.9 208.9V207.8H183V208.9ZM188.1 203.5C188.1 204.2 187.5 204.8 186.9 204.8H185.9H183H125H122H121C120.3 204.8 119.8 204.2 119.8 203.5V200C119.8 199.3 120.4 198.7 121 198.7H124.7H131.6H176.2H183.1H186.8C187.5 198.7 188 199.3 188 200C188.1 200 188.1 203.5 188.1 203.5Z" fill="black"/>
<path d="M132.6 187.4L138 191.5L143.3 187.4L148.6 191.5L153.9 187.4L159.3 191.5L164.6 187.4L169.9 191.5L175.3 187.4L180.6 191.5L186.8 186.8L185.1 184.3L180.6 187.7L175.3 183.6L169.9 187.7L164.6 183.6L159.3 187.7L153.9 183.6L148.6 187.7L143.3 183.6L138 187.7L132.6 183.6L127.3 187.7L122.8 184.3L121.1 186.8L127.3 191.5L132.6 187.4Z" fill="black"/>
<path d="M125 180.5H182.9H185.8C185.8 179.9 185.9 179.3 185.9 178.6C185.9 178.2 185.9 177.8 185.9 177.4C185.2 161.7 171.2 149 154 149C136.7 149 122.7 161.7 122 177.5C122 177.9 122 178.3 122 178.7C122 179.3 122 179.9 122.1 180.5H125ZM154 152C169.6 152 182.4 163.3 183 177.5H125C125.6 163.4 138.4 152 154 152Z" fill="black"/>
<path d="M154 166.3C155.049 166.3 155.9 165.405 155.9 164.3C155.9 163.195 155.049 162.3 154 162.3C152.951 162.3 152.1 163.195 152.1 164.3C152.1 165.405 152.951 166.3 154 166.3Z" fill="black"/>
<path d="M146.2 161.2C147.249 161.2 148.1 160.305 148.1 159.2C148.1 158.095 147.249 157.2 146.2 157.2C145.151 157.2 144.3 158.095 144.3 159.2C144.3 160.305 145.151 161.2 146.2 161.2Z" fill="black"/>
<path d="M161.7 161.2C162.749 161.2 163.6 160.305 163.6 159.2C163.6 158.095 162.749 157.2 161.7 157.2C160.651 157.2 159.8 158.095 159.8 159.2C159.8 160.305 160.651 161.2 161.7 161.2Z" fill="black"/>
<path d="M275.1 165.5H275H250.3C264.1 158.6 265.2 154.2 264.7 151.8C263.5 147.8 259 144.8 254.7 146.4C249.1 148.5 247.6 156.8 246.1 162.8C244.1 156.7 242.3 149 237.9 145.1C236.6 144 234.8 142.8 232.1 143.1C228.1 143.5 222.3 148.5 224.6 154.1C226.9 159.5 234.3 162.9 239.2 165.6H217.2H216.9C215.3 165.6 214 166.9 214 168.5V179.8C214 181.4 215.3 182.7 216.9 182.7H217.2V216V218.4V219H275V218.5V216V182.6H275.1C276.7 182.6 278 181.3 278 179.7V168.4C278 166.8 276.7 165.5 275.1 165.5ZM256.4 148.9C258.5 148.6 261.4 150.2 261.7 152.1C262.1 154.9 258.3 157.4 256.6 158.5C254.1 160.2 251.7 161.1 249.3 162.6C250.2 158.9 251.8 149.6 256.4 148.9ZM233.5 158.9C231.3 157.4 227 154.5 227.1 151.1C227.2 147.5 232.8 144.5 235.9 147.2C239.8 150.6 241.6 158.3 243 163.8C239.8 162.3 236.7 161 233.5 158.9ZM239.5 216H220.1V182.6H239.5V216ZM239.5 179.5H217V168.5H239.5V179.5ZM249.7 179.5V182.5V216H242.5V182.6V179.6V168.6H249.7V179.5ZM272 216H252.6V182.6H272V216ZM274.9 179.5H252.6V168.5H274.9V179.5Z" fill="black"/>
<rect x="0.5" y="118.5" width="307" height="123" rx="4.5" stroke="#7B61FF" stroke-dasharray="10 5"/>
<g clip-path="url(#clip1_33719_451)">
<path fill-rule="evenodd" clip-rule="evenodd" d="M27.9999 414.2C28.7999 413.2 29.9999 412.5 31.5999 412.5C34.2999 412.5 36.1999 414.4 36.0999 417.4V423.5H34.0999V417.8C34.0999 416 32.9999 414.6 31.1999 414.6C29.1999 414.6 27.8999 416.1 27.8999 418.2V423.5H25.8999V408H27.8999V414.2H27.9999ZM20 423.5V420.9H22.5V423.5H20ZM46.5999 412.8H41.7999V409.1H39.7999V412.9H37.8999V414.9H39.7999V420.9C39.7999 422.6 40.7999 423.6 42.4999 423.6H46.5999V421.6H42.8999C42.1999 421.6 41.7999 421.2 41.7999 420.5V414.8H46.5999V412.8ZM57.6 414.7C58.2 413.4 59.5 412.6 61.1 412.6C63.6 412.6 65.1 414.4 65 416.9V423.4H63V417.1C63 415.5 62.1 414.5 60.6 414.5C59.4 414.5 58 415.4 58 417.8V423.4H56V417.1C56 415.5 55.1 414.5 53.6 414.5C52 414.5 51 416 51 418V423.4H49V412.8H50.9V414.4H51C51.6 413.4 52.7 412.6 54.1 412.6C55.7 412.6 56.9 413.5 57.5 414.7H57.6ZM67.8 420.7C67.8 422.4 68.8 423.4 70.6 423.4H72.6V421.4H70.9001C70.2001 421.4 69.8 421 69.8 420.3V408H67.8V420.7ZM45.0001 425.9C46.7001 425.9 48.0001 426.6 48.9001 427.7V426.2H50.9001V436.8H48.9001V435.2H48.8001C48.0001 436.3 46.8001 437.1 45.0001 437.1C41.9001 437.1 39.6001 434.8 39.6001 431.5C39.6001 428.2 41.9001 425.9 45.0001 425.9ZM41.7001 431.5C41.7001 433.5 43.1001 435.1 45.3001 435.1C47.5001 435.1 48.9001 433.4 48.9001 431.5C48.9001 429.5 47.5001 427.9 45.3001 427.9C43.1001 427.9 41.7001 429.5 41.7001 431.5ZM64.2 430C63.7 427.6 61.5999 425.9 58.7999 425.9C55.3999 425.9 53.2 428.4 53.2 431.5C53.2 434.6 55.3999 437.1 58.7999 437.1C61.5999 437.1 63.7 435.3 64.2 432.9H62.0999C61.7 434.2 60.3999 435.2 58.7999 435.2C56.5999 435.2 55.2 433.6 55.2 431.6C55.2 429.6 56.5999 428 58.7999 428C60.3999 428 61.5999 429 62.0999 430.2H64.2V430ZM71.2001 425.9C72.9001 425.9 74.2001 426.6 75.1 427.7V426.2H77.1V436.8H75.1V435.2H75C74.2001 436.3 73 437.1 71.2001 437.1C68.1001 437.1 65.8 434.8 65.8 431.5C65.8 428.2 68.1001 425.9 71.2001 425.9ZM67.9001 431.5C67.9001 433.5 69.3 435.1 71.5 435.1C73.6 435.1 75.1 433.4 75.1 431.5C75.1 429.5 73.7001 427.9 71.5 427.9C69.3 427.9 67.9001 429.5 67.9001 431.5ZM88.6999 427.8C87.7999 426.7 86.4999 425.9 84.7999 425.9C81.6999 425.9 79.3999 428.2 79.3999 431.5C79.3999 434.8 81.5999 437.1 84.7999 437.1C86.4999 437.1 87.7999 436.3 88.5999 435.3H88.6999V436.8H90.6999V421.4H88.6999V427.8ZM85.0999 435.1C82.8999 435.1 81.4999 433.5 81.4999 431.5C81.4999 429.5 82.8999 427.9 85.0999 427.9C87.2999 427.9 88.6999 429.5 88.6999 431.5C88.5999 433.5 87.1999 435.1 85.0999 435.1ZM92.8 431.5C92.8 428.4 95 425.9 98.3 425.9C101.8 425.9 104 428.6 103.8 432.2H95C95.1 433.8 96.5 435.1 98.4 435.1C99.8 435.1 100.9 434.5 101.4 433.5H103.5C102.8 435.8 100.8 437.1 98.3 437.1C94.9 437.1 92.8 434.5 92.8 431.5ZM101.6 430.4C101.3 428.8 100 427.8 98.3 427.8C96.6001 427.8 95.4 428.9 95.1 430.4H101.6ZM118.2 425.9C116.6 425.9 115.3 426.7 114.6 427.9H114.5C113.9 426.7 112.7 425.9 111.1 425.9C109.7 425.9 108.6 426.6 108 427.7V426.2H106.1V436.8H108.1V431.4C108.1 429.4 109.1 428 110.7 427.9C112.2 427.9 113.1 428.9 113.1 430.5V436.8H115.1V431.2C115.1 428.8 116.5 427.9 117.7 427.9C119.2 427.9 120.1 428.9 120.1 430.5V436.8H122.1V430.3C122.2 427.7 120.7 425.9 118.2 425.9ZM125.8 426.1L129.4 435L132.8 426.1H134.9L130.2 438.3C129.5 440.1 128.5 440.9 126.7 440.9H124.2V438.9H126.7C127.7 438.9 128.1 438.6 128.4 437.7L123.6 426.1H125.8Z" fill="black"/>
</g>
<g clip-path="url(#clip2_33719_451)">
<path d="M295 401H155L215.362 466.7C220.638 472.5 229.362 472.5 234.638 466.7L295 401Z" fill="#81B3D3"/>
<path d="M192.232 401.5L224.797 439.4L257.261 401.7L192.232 401.5Z" fill="#23A9E1"/>
<path d="M216.986 415.7H234.536C233.217 414.9 230.073 411.1 228.449 412.5C228.348 412.6 223.478 406.8 220.333 409.6C217.594 412.1 216.275 409.3 213.232 411.2C209.58 413.6 215.261 414.9 216.986 415.7ZM244.073 412.2L234.131 412.3C238.087 407.8 239.812 408.3 244.073 412.2Z" fill="white"/>
<path d="M254.014 404.6V402.2H256.145L254.014 404.6ZM204.101 414C204.203 414.1 206.536 411.6 210.29 409.1C213.739 406.8 219.014 404.2 224.899 404.2C230.783 404.2 236.159 406.9 239.609 409.2C243.362 411.6 245.696 414 245.797 414.1L243.261 417.1C238.696 417.7 235.449 421 230.986 420.3C228.754 419.9 228.652 418.7 228.043 417.4C227.536 416.4 226.725 416.6 225.71 416.2C224.797 415.8 224.188 415.1 222.261 415.5C220.638 415.9 220.435 418.4 218.304 418.3C217.188 418.2 217.087 416.7 215.464 414.7C211.304 409.8 207.511 410.41 204.873 414.91L204.101 414ZM195.58 402.2V404.1L193.957 402.2H195.58ZM250.261 402.2H253.507V405.2L250.261 409V402.2ZM246.101 413.6V402.2H249.652V409.6L246.101 413.6ZM245.594 403.2V413.1C244.478 412 243.261 411 241.942 410.1L245.594 403.2ZM241.435 402.9V409.7C240.928 409.4 240.522 409 239.913 408.7C239.203 408.3 238.493 407.8 237.681 407.4L241.435 402.9ZM236.971 402.7V407C235.957 406.5 234.841 406 233.826 405.5L236.971 402.7ZM237.58 402.2H241.333L237.58 406.8V402.2ZM241.942 402.2H245.594L241.942 409.3V402.2ZM233.014 402.2H236.971L233.42 405.3C233.319 405.3 233.217 405.2 233.116 405.2L233.014 402.2ZM232.507 402.6V405C231.493 404.6 230.478 404.3 229.362 404.1L232.507 402.6ZM228.246 402.6V403.9C227.536 403.8 226.826 403.7 226.014 403.6L228.246 402.6ZM221.348 402.6L223.58 403.6C222.768 403.6 222.058 403.7 221.348 403.9V402.6ZM217.188 402.6L220.333 404.1C219.217 404.3 218.203 404.6 217.188 405V402.6ZM220.841 403.8L217.493 402.2H220.841V403.8ZM224.391 403.4L221.551 402.1H224.391V403.4ZM225.101 402.2H228.043L225.101 403.5V402.2ZM228.855 402.2H232.101L228.855 403.8V402.2ZM216.275 405.3L212.725 402.2H216.681V405.2L216.275 405.3ZM212.623 402.7L215.768 405.4C214.652 405.8 213.638 406.3 212.623 406.9V402.7ZM208.261 402.9L211.913 407.4C210.594 408.1 209.377 408.9 208.261 409.8V402.9ZM204 403.2L207.652 410.2C206.333 411.2 205.116 412.2 204 413.4V403.2ZM207.754 409.2L204.101 402.1H207.754V409.2ZM212.116 406.7L208.362 402.1H212.116V406.7ZM199.333 408.5L196.087 404.7V402.2H199.333V408.5ZM199.942 402.2H203.493V413.4L199.942 409.2V402.2ZM191.522 401V415.6L225 455.5L258.478 416V401H191.522Z" fill="#491213"/>
<path d="M222.362 447L225 442.8L227.638 447L225 451.2L222.362 447Z" fill="#23A9E1"/>
<path d="M230.275 431.6C226.826 429.6 227.638 428.1 230.478 426.7C232 426 235.348 423.3 236.667 424.2L230.275 431.6ZM227.942 434.1C225.913 434 223.58 433.7 221.551 434.2C222.768 434.5 225.812 435.4 222.971 436.1C223.985 437.5 225.609 437.4 226.623 436.2C226.217 436 225.913 435.7 225.609 435.5C226.725 435.2 227.739 434.6 227.942 434.1ZM229.159 432.5C228.246 431.7 227.232 431.7 226.42 432.5C225.203 430.4 220.942 431.1 218.913 430.8C220.029 433.4 228.652 433.9 229.159 432.5ZM222.261 430.3C220.638 429.8 215.362 429.9 218.812 428.5C219.927 428.1 225.609 428.6 222.261 430.3ZM224.29 427.3C223.783 426.2 224.696 424.9 226.014 425.9C227.232 426.7 225.406 427.9 224.29 427.3ZM221.348 427.4C219.014 428.1 215.971 426.6 219.725 425.9C222.058 425.4 224.493 426.4 221.348 427.4C221.449 427.4 221.246 427.4 221.348 427.4ZM218.71 421.2C218.203 422.8 217.188 423.1 217.29 421.2C217.391 418.9 218.913 419.5 220.536 418.6C221.855 417.9 222.565 415.2 224.898 416.8C225.913 417.5 227.13 416.9 227.435 418C227.435 417.9 224.493 424.7 226.116 424.7C222.869 424.7 224.29 420.9 225.507 418.3C224.29 418.9 222.362 422.6 223.985 423.3C223.174 424.4 220.536 425.9 219.217 424.8C218.101 423.8 218.71 422.5 218.71 421.2ZM214.652 424C208.971 424 212.826 415.4 214.754 415.9C216.985 416.6 216.681 424.1 214.652 424ZM208.362 415.8C205.725 415.7 206.841 413.2 208.667 412.7C210.391 412.2 213.942 413.8 215.159 414.9C213.333 415.5 211 415.4 208.971 415.5C208.768 413.5 208.261 414.2 208.362 415.8Z" fill="#DC6243"/>
<path d="M227.841 426.8C224.899 423.8 232.203 424.1 233.42 423C234.232 423.3 240.522 417.6 242.044 418C240.928 419.3 238.594 423.3 236.971 423.3C235.652 423.3 234.334 423.1 233.319 424C231.797 425.4 229.362 426.1 227.841 426.8Z" fill="#F49774"/>
<path d="M228.754 423.2C227.131 424.1 225.609 420.7 228.449 421C230.275 421.2 232.203 420.8 233.928 421.1C232.609 422.6 230.783 423.4 228.754 423.2Z" fill="#F4B1A4"/>
<path d="M206.841 421.9C207.145 422.3 207.449 422.7 207.348 423.3C207.348 423.7 206.739 424.3 207.145 424.5L208.667 422.7C208.261 422.6 205.116 418.9 205.116 418.5L202.986 419.6C203.087 420 203.797 419.6 204.203 419.6C204.71 419.6 205.116 420 205.522 420.3C204.406 421.2 201.667 423.6 201.362 423.6C201.261 423.6 200.652 423.2 200.652 423.6C200.652 423.8 201.261 424.3 201.362 424.4L202.783 426.1C203.188 425.9 202.681 425.6 202.884 425.3C202.986 425.1 206.13 422.6 206.841 421.9ZM203.391 417.4C203.696 417.3 203.797 417.7 204 417.4L202.377 415.5C202.174 415.2 201.87 414.9 201.87 415.5C201.971 415.9 197.812 419.2 197.609 419.3C197.304 419.4 197.101 419 196.899 419.4C197.406 420 197.812 420.5 198.319 421.1C198.522 421.3 198.623 421.5 198.826 421.7C199.029 421.9 198.928 421.3 198.928 421.3C198.826 421 199.232 420.7 199.536 420.5C200.551 419.5 203.087 417.4 203.391 417.4ZM197.609 416.8C196.493 417.1 195.174 416.7 194.87 415.5C194.464 414.3 195.275 413.1 196.188 412.4C197.101 411.7 198.522 411.8 199.029 412.9C199.232 413.4 199.13 414 198.928 414.5C198.826 414.8 198.522 415.1 198.928 415.3C199.536 414.6 200.044 413.9 200.652 413.2C199.942 412.8 199.638 412.1 199.13 411.5C198.522 410.8 197.812 410.1 196.797 410C194.87 409.7 193.145 411.7 192.942 413.4C192.841 414.3 193.145 415.2 193.754 416C194.261 416.6 194.971 417.1 195.377 417.8C195.58 417.9 197.203 417.1 197.507 417C197.71 417 197.609 416.9 197.609 416.8C197.609 416.8 197.101 417 197.609 416.8ZM223.478 440.4C222.768 439.9 220.841 437.4 220.435 436.9L220.232 436.6L220.029 436.7C219.928 436.8 220.13 437.1 220.029 437.3C219.522 438.1 216.275 440.5 216.073 440.7C215.667 440.9 215.261 440.6 215.058 440.9C215.565 441.5 216.884 443.2 217.087 443.2C217.391 443.2 217.188 442.7 217.188 442.6C217.29 442.4 218.913 441 219.522 440.5C219.725 440.3 219.928 440.8 220.13 441C220.333 441.3 220.435 441.7 220.333 442C220.232 442.2 219.826 442.6 220.13 442.8C220.536 442.3 221.652 441 221.855 440.8C222.058 440.6 221.449 440.8 221.551 440.7C221.348 440.8 221.044 440.9 220.841 440.7C220.739 440.7 220.13 440 220.232 439.9C220.536 439.7 220.841 439.3 221.246 439.2C221.855 439.1 222.261 440.2 222.362 440.6C222.464 441 222.464 441.4 222.261 441.7C222.159 442 221.957 442.2 222.261 442.3L223.681 440.4C223.681 440.5 223.58 440.5 223.478 440.4C223.58 440.5 223.377 440.4 223.478 440.4ZM214.145 431.5C213.435 431.5 212.725 431.8 212.116 432.3C210.696 433.5 210.493 435.6 211.609 437.1C212.928 438.8 215.058 439 216.783 437.8C218.203 436.6 218.406 434.5 217.29 433C216.478 432 215.261 431.5 214.145 431.5ZM215.362 432.9C216.275 432.8 216.884 433.7 216.478 434.7C216.073 435.7 215.058 436.7 214.044 437.1C212.826 437.6 212.015 436.6 212.522 435.4C212.928 434.4 213.942 433.4 214.957 433C215.058 433 215.159 432.9 215.362 432.9ZM212.522 428.3C212.826 428.3 213.13 428.7 213.333 428.3L211.913 426.6C211.507 426.8 211.913 427 211.812 427.2C211.609 427.5 210.087 427.7 209.681 427.8C209.783 427.4 210.29 426.1 210.493 426C210.899 425.7 211.101 426.3 211.304 425.9L209.478 423.8C209.275 423.6 209.073 423.1 208.87 423.4C208.87 423.4 208.87 424.4 208.768 424.5C208.667 424.7 208.159 426.9 207.551 427.4C207.246 427.7 206.029 428.7 205.725 428.8C205.42 428.9 205.217 428.4 204.913 428.8L206.536 430.7C206.638 430.8 206.942 431.3 207.044 431.3C207.348 431.4 207.044 430.7 207.145 430.6C207.246 430.3 208.768 428.8 209.478 428.7C210.391 428.5 211.507 428.2 212.522 428.3C212.725 428.3 212.319 428.3 212.522 428.3ZM237.073 435C237.174 435.4 237.275 435.9 237.174 436.3C237.073 436.9 236.565 438.2 235.754 437.8C234.942 437.4 234.333 436.7 233.623 436.1C234.13 435.5 234.638 435 235.551 435.3C235.754 435.4 235.957 435.3 235.754 435.1C235.449 434.9 233.725 433.8 233.623 433.9C233.42 434.1 233.928 434.5 233.725 434.9C233.623 435.2 233.319 435.4 233.116 435.7C232.609 435.3 231.899 434.9 232.406 434.2C232.812 433.8 233.217 433.4 233.826 433.3C234.232 433.2 235.044 433.6 235.145 433.2C234.435 432.9 233.725 432.5 233.015 432.2C233.116 432.7 230.783 435.1 230.275 435.7C230.174 435.8 229.87 436.1 229.87 436.2C229.87 436.5 230.275 436.3 230.275 436.3C230.58 436.2 234.739 439.6 234.841 439.9C234.942 440.1 234.739 440.3 234.841 440.4C234.841 440.4 234.942 440.5 235.044 440.5C235.348 440.2 237.986 436.6 238.594 436.5C238.087 435.7 237.58 434.9 237.073 434.1C236.667 434.3 236.971 434.8 237.073 435ZM233.015 439.4C231.696 438.5 229.362 440.2 228.957 440.4C228.246 440.7 227.739 440 228.145 439.4C228.449 438.9 229.058 438.6 229.667 438.6C229.87 438.6 230.58 438.7 230.58 438.6C230.681 438.5 230.681 438.5 230.58 438.4C229.971 438 229.464 437.6 228.855 437.3C228.754 438 227.942 438.4 227.536 438.9C227.029 439.5 226.522 440.2 226.522 440.9C226.522 441.6 226.928 442.3 227.638 442.6C228.348 443 229.159 442.7 229.87 442.3C230.275 442 230.681 441.7 231.087 441.5C231.696 441.2 232.609 441.5 232.406 442.3C232.203 443 231.493 443.6 230.783 443.8C230.377 443.9 229.971 443.9 229.565 443.7C229.261 443.6 228.957 443.2 228.754 443.6L231.087 445.2C231.188 444.7 231.391 444.5 231.797 444.2C232.304 443.8 232.71 443.3 233.116 442.8C233.928 441.9 234.232 440.3 233.015 439.4ZM250.87 411.3C250.87 411.4 250.87 411.4 250.87 411.3L249.957 412.3L249.145 413.3C248.942 413.5 248.841 413.6 249.145 413.8C249.652 413.5 252.696 418.6 252.493 419.3C251.986 419.5 247.928 416 247.826 415.8C247.826 415.7 248.029 415.1 247.725 415.2C247.623 415.2 247.217 415.8 247.116 415.9L246.507 416.6C246.71 416.9 246.812 416.6 247.116 416.6C247.319 416.7 248.333 417.5 248.638 417.7C248.13 417.7 246.913 417.8 246.71 417.8C246.101 417.9 246.406 417.4 246 417.2L244.478 419L243.565 420C243.565 420 243.565 420 243.565 420.1C243.768 420.3 243.667 420.2 243.971 420.1C244.275 420 248.333 423.3 248.435 423.5C248.638 423.8 248.333 424.1 248.739 424.3L249.957 422.9C250.058 422.8 250.058 422.8 249.957 422.8C249.652 422.6 249.652 422.9 249.246 422.9C248.942 422.8 246.304 420.7 245.391 419.9L250.768 419.7C250.971 419.7 251.478 420.3 251.478 420.5C251.377 420.7 251.174 420.9 251.478 421C251.783 420.6 252.087 420.3 252.391 419.9L252.493 419.7C252.594 419.7 252.594 419.6 252.594 419.5L252.696 419.4C253 419.1 253.913 418.1 253.812 418C253.507 417.7 253.406 418.3 253 418C252.797 417.8 252.188 416.8 252.087 416.6C251.884 416.3 252.493 416 252.696 415.9C253.203 415.6 254.826 415.1 255.029 416.1C255.029 416.3 254.826 416.5 254.928 416.6C254.928 416.6 255.029 416.8 255.13 416.7L257.261 414.1C257.159 414 257.159 414 257.058 413.9C256.551 414.4 251.478 412.4 251.174 412.1C251.073 411.9 251.073 411.3 250.87 411.3ZM250.667 413.9C251.478 414.2 252.188 414.5 253 414.9C252.797 415 252.594 415.1 252.391 415.2C252.188 415.3 251.986 415.5 251.783 415.7L250.667 413.9ZM243.971 421.6C242.855 421.5 241.739 422 240.928 422.9C239.71 424.4 239.812 426.6 241.333 427.8C242.855 429 245.087 428.7 246.304 427.3C247.522 425.8 247.42 423.6 245.899 422.4C245.391 422 244.681 421.7 243.971 421.6ZM242.551 423.2C243.159 423.2 243.87 423.6 244.275 423.9C245.087 424.4 246.507 425.6 245.797 426.6C245.797 426.5 245.899 426.5 245.696 426.7C244.884 427.5 243.464 426.8 242.754 426.2C242.044 425.7 240.725 424.5 241.536 423.5C241.841 423.3 242.145 423.2 242.551 423.2ZM239.406 427.5C238.188 427.4 236.971 428 236.058 429.1C235.449 429.9 234.739 430.6 234.13 431.4C234.333 431.7 234.638 431.3 234.942 431.5C235.246 431.7 239.101 434.8 239.101 435C239.203 435.3 238.899 435.4 239.203 435.6C239.304 435.7 242.145 432.2 242.449 431.6C242.855 430.5 242.551 429.2 241.638 428.4C241.739 428.5 241.841 428.5 241.638 428.4C240.826 427.8 240.116 427.5 239.406 427.5ZM238.29 429.1C238.391 429.1 238.493 429.1 238.594 429.1C240.015 429.5 242.044 431.2 240.725 432.7C240.522 432.9 240.725 432.7 240.319 433.1C240.116 433.3 236.058 430.1 236.261 429.9C236.667 429.4 237.58 429 238.29 429.1Z" fill="white"/>
</g>
<rect x="0.5" y="381.5" width="318" height="109" rx="4.5" stroke="#7B61FF" stroke-dasharray="10 5"/>
</g>
<defs>
<clipPath id="clip0_33719_451">
<rect width="409" height="570" fill="white"/>
</clipPath>
<clipPath id="clip1_33719_451">
<rect width="114.9" height="32.9" fill="white" transform="translate(20 408)"/>
</clipPath>
<clipPath id="clip2_33719_451">
<rect width="140" height="70" fill="white" transform="translate(155 401)"/>
</clipPath>
</defs>
</svg>
